<svg xmlns="http://www.w3.org/2000/svg" width="143" height="69.913" viewBox="0 0 143 69.913"><defs><style>.a{fill:#0c4278;}</style></defs><g transform="translate(-535 -177)"><path class="a" d="M5989.774,1778.647a16.954,16.954,0,1,0,16.91,16.954A16.886,16.886,0,0,0,5989.774,1778.647Zm0,27.851a10.9,10.9,0,1,1,10.808-10.9A10.829,10.829,0,0,1,5989.774,1806.5Z" transform="translate(-5405.918 -1565.642)"/><path class="a" d="M6032.115,1754.692a16.954,16.954,0,1,0,16.909,16.954A16.888,16.888,0,0,0,6032.115,1754.692Zm0,27.851a10.9,10.9,0,1,1,10.807-10.9A10.828,10.828,0,0,1,6032.115,1782.543Z" transform="translate(-5384.62 -1577.692)"/><path class="a" d="M6015.43,1800.243a.206.206,0,0,1,.081-.28,10.81,10.81,0,0,0,5.38-9.534c0-6.824-4.525-11.483-12.338-11.483H5997.97v33.007h6.147v-27.265h3.892c4.706,0,6.734,2.164,6.734,5.516,0,2.824-1.266,5.286-4.929,5.88a.21.21,0,0,0-.18.2l0,5.266a1.282,1.282,0,0,0,.146.589l5.146,9.809h6.641a.213.213,0,0,0,.187-.316Z" transform="translate(-5393.29 -1565.491)"/><path class="a" d="M6015.43,1776.288a.206.206,0,0,1,.081-.28,10.81,10.81,0,0,0,5.38-9.534c0-6.824-4.525-11.483-12.338-11.483H5997.97V1788h6.147v-27.265h3.892c4.706,0,6.734,2.164,6.734,5.516,0,2.826-1.266,5.286-4.929,5.88a.211.211,0,0,0-.18.2l0,5.267a1.28,1.28,0,0,0,.146.589l5.146,9.809h6.641a.213.213,0,0,0,.187-.316Z" transform="translate(-5393.29 -1577.541)"/><circle class="a" cx="3.584" cy="3.584" r="3.584" transform="translate(545.394 229.45)"/><path class="a" d="M5979.565,1778.949v27.245a1.271,1.271,0,0,1-.375.9l-4.5,4.482a1.277,1.277,0,0,1-.9.374H5957.4a1.277,1.277,0,0,1-.9-.374l-4.51-4.5a1.28,1.28,0,0,1-.376-.9v-27.232h6.147v25.207l1.924,1.924h11.83l1.908-1.924v-25.206Z" transform="translate(-5416.609 -1565.491)"/><path class="a" d="M5985.836,1754.989h-6.1a.105.105,0,0,0-.1.132l1.392,5.564h4.09c8.131,0,12.023,4.479,12.023,10.807,0,6.147-4.568,10.792-11.753,10.792h-4.36l-1.392,5.564a.106.106,0,0,0,.1.132h6.371c10.042,0,17.182-7.094,17.182-16.488C6003.289,1762.128,5996.961,1754.989,5985.836,1754.989Z" transform="translate(-5402.516 -1577.542)"/><rect class="a" width="6.102" height="32.984" transform="translate(566.955 177.454)"/><path class="a" d="M6053.2,1802.293a9.657,9.657,0,0,1-9.649,9.634h-5.275l-3.532-5.681a.216.216,0,0,1,.184-.331h8.443a3.757,3.757,0,0,0,3.8-3.228,3.637,3.637,0,0,0-2.734-3.926l-3.2-.812a9.606,9.606,0,0,1-7.243-10.431,9.919,9.919,0,0,1,9.994-8.567h8.831a.213.213,0,0,1,.18.326l-3.54,5.686h-5.742a3.722,3.722,0,0,0-3.624,2.608,3.615,3.615,0,0,0,2.6,4.547l3.2.812A9.621,9.621,0,0,1,6053.2,1802.293Z" transform="translate(-5375.201 -1565.489)"/><path class="a" d="M6031.763,1795.434l10.041-16.156a.212.212,0,0,0-.18-.325h-6.7l-8.364,13.481H6022.7v-13.481h-6.148v32.99h6.148v-13.482h3.866l8.364,13.482h6.7a.212.212,0,0,0,.18-.324Z" transform="translate(-5383.944 -1565.488)"/><path class="a" d="M5967.871,1754.994v11.742l-1.278,1.278-3.958,0v6.971l3.965,0,1.271,1.27V1788h6.147v-33.006Z" transform="translate(-5411.064 -1577.54)"/><path class="a" d="M5962.994,1774.983v-6.971l-3.954,0-1.281-1.281v-11.739h-6.148V1788h6.148v-11.747l1.274-1.274Z" transform="translate(-5416.61 -1577.54)"/></g></svg>