<svg xmlns="http://www.w3.org/2000/svg" width="100" height="100" viewBox="0 0 100 100"><defs><style>.a{fill:#217dd8;}.a,.b,.c{stroke:#0c4278;stroke-linecap:round;stroke-linejoin:round;}.a,.b{stroke-width:1.5px;}.b{fill:#be1e2d;}.c,.d{fill:none;}.c{stroke-width:0.5px;}</style></defs><g transform="translate(-620 -557)"><g transform="translate(-63.977 526.206)"><path class="a" d="M763.193,99.23,729.776,65.813V59.686a13.291,13.291,0,0,0-16.857-12.23.708.708,0,0,0-.318,1.181l5.841,5.841a2.467,2.467,0,0,1,.721,1.739V60.5a2.468,2.468,0,0,1-2.475,2.475H712.4a2.472,2.472,0,0,1-1.74-.721l-5.84-5.841a.708.708,0,0,0-1.181.318,13.29,13.29,0,0,0,12.23,16.857H722l33.418,33.417a5.5,5.5,0,0,0,7.778-7.778Z"/><path class="a" d="M749.434,51.008l-3.728,3.728a1.418,1.418,0,0,0,0,2l2.088,2.088L737.683,68.939l-2.088-2.087a1.417,1.417,0,0,0-2,0l-26.561,26.56a8,8,0,0,0,11.314,11.314L744.9,78.165a1.418,1.418,0,0,0,0-2l-2.095-2.1,10.112-10.112,2.095,2.1a1.416,1.416,0,0,0,2,0l3.912-3.912a8.007,8.007,0,0,0-1.05-12.2A8.177,8.177,0,0,0,749.434,51.008Zm-34.188,50.621a3.625,3.625,0,1,1,0-5.12A3.627,3.627,0,0,1,715.246,101.629ZM757.835,59.04a3.625,3.625,0,1,1,.007-5.127A3.619,3.619,0,0,1,757.835,59.04Z"/><line class="b" x2="5.127" y2="5.127" transform="translate(737.683 68.939)"/><line class="c" x2="11.303" y2="11.303" transform="translate(712.683 87.766)"/><line class="b" x2="5.127" y2="5.127" transform="translate(747.794 58.828)"/><path class="c" d="M741.532,81.538l19.656,19.7a2.665,2.665,0,1,1-3.769,3.77"/><line class="c" x2="2.424" y2="2.429" transform="translate(727.805 67.783)"/></g><rect class="d" width="100" height="100" transform="translate(620 557)"/></g></svg>