<svg xmlns="http://www.w3.org/2000/svg" width="100" height="100" viewBox="0 0 100 100"><defs><style>.a{fill:#217dd8;stroke-width:1.5px;}.a,.b{stroke:#0c4278;stroke-linecap:round;stroke-linejoin:round;}.b,.c{fill:none;}.b{stroke-width:0.5px;}</style></defs><g transform="translate(-910 -557)"><g transform="translate(91.023 526.206)"><path class="a" d="M860.27,90.829A14.519,14.519,0,0,0,859.9,87.6a1.475,1.475,0,0,1,.541-1.482l2.674-2.1a1.5,1.5,0,0,0,.373-1.929l-1.361-2.358a1.5,1.5,0,0,0-1.858-.642l-3.134,1.259a1.513,1.513,0,0,1-1.589-.266A14.6,14.6,0,0,0,850,76.871a1.471,1.471,0,0,1-1.041-1.184l-.486-3.408a1.5,1.5,0,0,0-1.484-1.289h-2.723a1.5,1.5,0,0,0-1.485,1.289l-.486,3.406a1.471,1.471,0,0,1-1.041,1.185,14.612,14.612,0,0,0-5.549,3.21,1.512,1.512,0,0,1-1.588.267l-3.132-1.258a1.5,1.5,0,0,0-1.858.642l-1.361,2.358a1.5,1.5,0,0,0,.373,1.929l2.674,2.1a1.475,1.475,0,0,1,.541,1.481,14.415,14.415,0,0,0,0,6.464,1.476,1.476,0,0,1-.542,1.481l-2.673,2.1a1.5,1.5,0,0,0-.373,1.93l1.361,2.358a1.5,1.5,0,0,0,1.858.642l3.129-1.257a1.514,1.514,0,0,1,1.589.266,14.586,14.586,0,0,0,5.551,3.21,1.471,1.471,0,0,1,1.041,1.185l.486,3.406a1.5,1.5,0,0,0,1.485,1.288h2.723a1.5,1.5,0,0,0,1.484-1.288l.486-3.407A1.473,1.473,0,0,1,850,104.787a14.613,14.613,0,0,0,5.549-3.21,1.514,1.514,0,0,1,1.589-.266l3.131,1.258a1.5,1.5,0,0,0,1.858-.642l1.361-2.358a1.5,1.5,0,0,0-.373-1.93l-2.674-2.1a1.475,1.475,0,0,1-.541-1.481A14.506,14.506,0,0,0,860.27,90.829Zm-14.64,4.68a4.68,4.68,0,1,1,4.68-4.68A4.686,4.686,0,0,1,845.63,95.509Z"/><path class="a" d="M912.774,99.184,879.357,65.767V59.639h0A13.29,13.29,0,0,0,862.5,47.41a.707.707,0,0,0-.318,1.18l5.841,5.841a2.472,2.472,0,0,1,.721,1.74v4.285a2.469,2.469,0,0,1-2.475,2.475h-4.285a2.466,2.466,0,0,1-1.739-.722l-5.841-5.84a.708.708,0,0,0-1.181.318,13.291,13.291,0,0,0,12.23,16.857h6.127L905,106.962a5.5,5.5,0,0,0,7.778-7.778Z"/><path class="b" d="M843.259,83.263a7.782,7.782,0,0,1,2.37-.37,7.957,7.957,0,1,1-5.38,2.11"/><path class="b" d="M877.387,67.737l33.382,33.451a2.665,2.665,0,1,1-3.769,3.77"/></g><rect class="c" width="100" height="100" transform="translate(910 557)"/></g></svg>