<svg xmlns="http://www.w3.org/2000/svg" width="706" height="568.418" viewBox="0 0 706 568.418"><defs><style>.a,.d,.e,.f,.g,.h{fill:none;}.a,.b,.c,.d,.e,.f{stroke:#041f3a;}.a,.b,.d,.e,.f,.g,.h{stroke-linecap:round;}.a,.b,.d,.e,.f,.g{stroke-linejoin:round;}.a,.b,.d{stroke-width:0.5px;}.b{fill:#041f3a;}.b,.c,.d,.e{fill-rule:evenodd;}.c{fill:#217dd8;}.g,.h{stroke:#0c4278;stroke-width:1.5px;}</style></defs><g transform="translate(-679.5 -253.476)"><line class="a" y1="4.159" x2="7.198" transform="translate(948.297 546.775)"/><line class="a" y1="8.289" x2="14.344" transform="translate(941.125 708.113)"/><g transform="translate(955.469 544.655)"><path class="b" d="M658.518,333.61l2.838-1.639v8.824l-2.838,1.641V333.61" transform="translate(-655.638 -318.651)"/><path class="b" d="M658.518,341.618l2.838-1.638V348.8l-2.838,1.64v-8.824" transform="translate(-655.638 -309.016)"/><path class="b" d="M657.223,328.044c4.717-2.725,5.677-2.895,5.677-.088,0,1.161-.011,2.483-.011,2.483l-2.811,1.624s0-.963,0-1.313c0-2.163-.474-3.741-2.857-2.705h0" transform="translate(-657.197 -325.925)"/><path class="b" d="M658.518,349.63l2.838-1.641v8.822l-2.838,1.641V349.63" transform="translate(-655.638 -299.379)"/><path class="b" d="M658.518,357.643,661.357,356v8.824l-2.838,1.641v-8.826" transform="translate(-655.638 -289.736)"/><path class="b" d="M658.518,365.651l2.838-1.638v8.822l-2.838,1.64v-8.824" transform="translate(-655.638 -280.1)"/><path class="b" d="M658.518,373.664l2.838-1.641v8.822l-2.838,1.641v-8.822" transform="translate(-655.638 -270.464)"/><path class="b" d="M658.507,381.676l2.838-1.638v8.822l-2.838,1.64v-8.824" transform="translate(-655.652 -260.82)"/><path class="b" d="M658.507,389.689l2.838-1.641v8.822l-2.838,1.641v-8.822" transform="translate(-655.652 -251.184)"/><path class="b" d="M657.211,405c4.717-2.721,5.677-3.659,5.677-6.466,0-1.157-.011-2.467-.011-2.467l-2.811,1.621s0,.956,0,1.309a6.7,6.7,0,0,1-2.86,6h0" transform="translate(-657.211 -241.539)"/></g><g transform="translate(787.891 369.638)"><path class="c" d="M666.16,271.568c-11.117-19.22-29.118-29.605-40.235-23.183l-9.5,5.468c-11.115,6.422-11.115,27.215-.022,46.457,11.095,19.22,29.119,29.606,40.236,23.184l9.5-5.468C677.253,311.6,677.253,290.81,666.16,271.568Zm-12.622,38.883h-.022c-7.4-.308-16.409-7.019-22.5-17.559-6.642-11.469-7.618-23.739-2.945-29.894,7.4.223,16.453,6.975,22.564,17.539C657.279,292.028,658.231,304.317,653.538,310.451Z" transform="translate(-548.737 -246.485)"/><g transform="translate(59.355 0.001)"><path class="d" d="M645.952,303.323c-7.784,4.492-20.394-2.778-28.165-16.237s-7.764-28.017.018-32.511" transform="translate(-603.426 -236.752)"/><path class="e" d="M644.208,301.44H644.2c-7.383-.271-16.435-7-22.52-17.554-6.638-11.487-7.605-23.767-2.908-29.912" transform="translate(-598.75 -237.475)"/><path class="e" d="M614.615,255.3c7.784-4.492,20.392,2.776,28.165,16.237s7.764,28.019-.018,32.511" transform="translate(-600.236 -237.477)"/><path class="d" d="M611.877,250.87c11.119-6.42,29.134,3.966,40.238,23.2s11.09,40.028-.026,46.448" transform="translate(-603.53 -243.494)"/><path class="e" d="M656.647,319.478c-11.119,6.418-29.134-3.97-40.238-23.2s-11.093-40.029.027-46.446" transform="translate(-608.088 -242.457)"/><path class="e" d="M611.877,253.861l9.487-5.477c11.119-6.42,29.134,3.966,40.238,23.2s11.09,40.028-.027,46.448l-9.487,5.477" transform="translate(-603.53 -246.485)"/></g><path class="c" d="M647.52,280.25c-11.095-19.242-29.119-29.628-40.236-23.205l-2.789,1.617c-11.139,6.42-11.139,27.213-.044,46.433,11.115,19.242,29.119,29.628,40.233,23.208l2.813-1.617C658.613,320.263,658.613,299.47,647.52,280.25ZM640.036,316.9c-.024,0-.024.022-.046.022-7.817,2.9-19.374-4.294-26.682-16.916-7.308-12.644-7.751-26.241-1.328-31.577,7.817-2.9,19.4,4.274,26.7,16.918C645.969,297.965,646.412,311.539,640.036,316.9Z" transform="translate(-563.114 -236.065)"/><g transform="translate(33.024 19.074)"><path class="d" d="M634,310.228c-7.784,4.492-20.392-2.78-28.165-16.239s-7.764-28.017.02-32.509" transform="translate(-591.476 -247.517)"/><path class="d" d="M633.844,309.644l-.02.009c-7.825,2.928-19.409-4.261-26.713-16.907s-7.74-26.239-1.333-31.573h.009" transform="translate(-589.947 -247.886)"/><path class="e" d="M602.664,262.206c7.781-4.494,20.392,2.776,28.163,16.237s7.764,28.017-.018,32.511" transform="translate(-588.284 -248.243)"/><path class="d" d="M599.926,257.773c11.119-6.418,29.132,3.968,40.236,23.2s11.093,40.029-.026,46.446" transform="translate(-591.578 -254.26)"/><path class="e" d="M644.694,326.382c-11.119,6.42-29.134-3.97-40.236-23.2s-11.093-40.026.026-46.446" transform="translate(-596.137 -253.223)"/><path class="e" d="M599.926,258.656l2.8-1.615c11.119-6.42,29.134,3.966,40.238,23.2s11.09,40.026-.027,46.446l-2.8,1.615" transform="translate(-591.578 -255.142)"/></g><path class="c" d="M639.221,287.13c-11.117-19.22-29.119-29.605-40.236-23.183l-9.5,5.468c-11.117,6.422-11.117,27.215-.024,46.435,11.117,19.242,29.119,29.628,40.236,23.205l9.5-5.468C650.314,327.165,650.314,306.372,639.221,287.13Zm-14.792,40.123c-7.4-.267-16.431-7-22.52-17.559-6.642-11.472-7.616-23.761-2.924-29.894,7.374.267,16.453,7.019,22.542,17.559C628.148,308.853,629.1,321.12,624.429,327.253Z" transform="translate(-581.147 -227.762)"/><g transform="translate(0.005 34.286)"><path class="d" d="M618.026,319.455c-7.784,4.492-20.392-2.78-28.163-16.239s-7.766-28.017.018-32.509" transform="translate(-577.675 -251.628)"/><path class="e" d="M616.282,317.57h-.009c-7.38-.269-16.433-7-22.52-17.554-6.638-11.487-7.6-23.765-2.908-29.91" transform="translate(-572.998 -252.351)"/><path class="e" d="M586.69,271.433c7.781-4.494,20.392,2.776,28.162,16.237s7.764,28.017-.018,32.511" transform="translate(-574.484 -252.354)"/><path class="d" d="M590.084,268.329c9.689-5.6,25.391,3.457,35.067,20.218s9.667,34.886-.022,40.48-25.393-3.459-35.069-20.218S580.393,273.923,590.084,268.329Z" transform="translate(-579.154 -256.481)"/><path class="d" d="M584.938,266.432c11.119-6.42,29.134,3.966,40.238,23.2s11.09,40.028-.026,46.448" transform="translate(-576.591 -259.056)"/><path class="e" d="M629.707,339.068c-11.119,6.418-29.134-3.97-40.236-23.2s-11.095-40.028.024-46.446l9.487-5.477c11.119-6.42,29.134,3.966,40.238,23.2s11.09,40.028-.027,46.448Z" transform="translate(-581.149 -262.047)"/></g></g><path class="c" d="M1014.071,217.534v79.185l-8.35,14.616-29.738,17.16c-2.192,6.31-5.911,11.315-11.161,14.327l-168.045,97.1c-18.112,10.474-47.5-6.466-65.609-37.821-18.092-31.355-18.07-65.256.044-75.73l168.045-97.1a24.209,24.209,0,0,1,13.8-3.056,18.273,18.273,0,0,0,10.1-2.415L974.765,194a47.036,47.036,0,0,1,9.1,2.679c.022,0,.022,0,.044.022,1.683.665,3.388,1.417,5.093,2.236a1.32,1.32,0,0,0,.176.088C998.79,203.716,1008.556,210.8,1014.071,217.534Z" transform="translate(370.929 60.004)"/><g transform="translate(1088.536 254)"><line class="f" y1="17.158" x2="29.724" transform="translate(258.391 117.342)"/><path class="d" d="M850.066,223.466c5.461,3.155,5.468,13.373.013,22.822-4.237,7.336-10.029,12.21-15.184,12.476" transform="translate(-576.504 -158.54)"/><path class="e" d="M831.762,240.2a30.789,30.789,0,0,1,2.3-4.829c5.455-9.449,14.307-14.554,19.771-11.4" transform="translate(-580.273 -159.05)"/><path class="d" d="M787.107,347.679H787.1c-14.666-2.838-31.454-16.442-43.115-36.627s-15.047-41.522-10.181-55.64" transform="translate(-700.716 -120.105)"/><path class="d" d="M791.472,359.611c-16.473,9.511-43.161-5.88-59.608-34.366s-16.433-59.3.037-68.806" transform="translate(-715.293 -118.87)"/><path class="d" d="M791.171,358.764l-.029.02c-16.583,6.783-41.513-8.46-57.164-35.578-15.673-27.125-16.4-56.365-2.216-67.3l.011-.009" transform="translate(-712.754 -119.521)"/><path class="d" d="M790.7,357.412h-.009c-16.49,4.375-39.729-10.674-54.6-36.422s-16.286-53.379-4.272-65.486" transform="translate(-710.213 -119.993)"/><path class="d" d="M732.067,255.256c-9.958,13.009-7.909,39.019,6.134,63.344s35.565,39.1,51.8,36.973" transform="translate(-707.671 -120.293)"/><path class="d" d="M732.523,255.163c-8.013,13.633-5.415,37.995,7.79,60.859s33,37.29,48.817,37.178" transform="translate(-705.13 -120.405)"/><path class="d" d="M733.172,255.239c-6.151,14.014-3.071,36.656,9.249,58,12.34,21.346,30.412,35.342,45.638,37.008" transform="translate(-702.587 -120.313)"/><path class="e" d="M725.149,257.975c16.473-9.511,43.159,5.876,59.608,34.367s16.431,59.3-.038,68.806" transform="translate(-708.541 -120.406)"/><path class="d" d="M723.789,255.773c18.129-10.467,47.5,6.466,65.607,37.825s18.085,65.265-.042,75.732" transform="translate(-710.177 -123.396)"/><path class="e" d="M796.787,367.64c-18.132,10.467-47.506-6.473-65.609-37.825s-18.087-65.265.044-75.732" transform="translate(-717.611 -121.705)"/><path class="d" d="M823.214,235.72a2.944,2.944,0,0,1,1.452-2.126l54.007-31.375,8.341,5.435" transform="translate(-590.557 -184.103)"/><path class="e" d="M837.786,314.638c18.129-10.467,18.147-44.38.044-75.734a108.866,108.866,0,0,0-13.842-19.011,2.982,2.982,0,0,1-.756-2.467" transform="translate(-590.575 -165.808)"/><line class="f" y1="97.106" x2="168.036" transform="translate(13.611 35.27)"/><line class="f" y1="97.106" x2="168.036" transform="translate(79.176 148.829)"/><path class="e" d="M834.335,194c12.67,2.214,30.885,13.274,39.3,23.551" transform="translate(-577.177 -193.996)"/><path class="e" d="M800.06,229.266a24.352,24.352,0,0,1,13.807-3.045A18.084,18.084,0,0,0,823.96,223.8L875.574,194" transform="translate(-618.414 -193.996)"/><path class="e" d="M856.727,204.686v79.181l-8.341,14.609" transform="translate(-560.271 -181.134)"/><path class="d" d="M860.322,210.647c-4.1-4.677-14.369-13.076-21.855-15.433" transform="translate(-572.206 -192.531)"/></g><path class="c" d="M743.961,236.372c-15.81-27.391-41.452-42.161-57.286-33.038l-1.307.753c-15.831,9.145-15.831,38.751-.022,66.12,15.79,27.369,41.432,42.161,57.263,33.016l1.306-.753C759.748,293.347,759.748,263.741,743.961,236.372Zm-2.39,63.683c-14.97,7.795-38.619-6.133-53.3-31.531-14.638-25.354-14.9-52.7-.8-61.868.022-.022.066-.044.088-.066.024,0,.024-.022.046-.022,14.968-7.9,38.7,6,53.408,31.487C755.741,263.543,755.917,291.066,741.57,300.055Z" transform="translate(317.846 67.994)"/><g transform="translate(991.333 268.628)"><path class="e" d="M739.748,296.729c-14.966,7.962-38.733-5.959-53.456-31.456-14.655-25.391-14.886-52.8-.694-61.919a.14.14,0,0,1,.049-.029" transform="translate(-671.524 -197.398)"/><path class="e" d="M679.621,204.872c14.928-8.619,39.114,5.325,54.023,31.148s14.893,53.741-.035,62.361" transform="translate(-666.114 -198.605)"/><path class="d" d="M736.122,302.815" transform="translate(-667.001 -200.226)"/><path class="e" d="M742.611,301.339c-15.827,9.136-41.472-5.651-57.277-33.023s-15.79-56.975.037-66.113" transform="translate(-673.49 -198.75)"/><path class="e" d="M678.883,204.089l1.3-.751c15.827-9.136,41.469,5.647,57.275,33.02s15.788,56.977-.038,66.116l-1.3.751" transform="translate(-667.001 -200.635)"/></g><path class="c" d="M733.819,242.217c-15.81-27.391-41.452-42.161-57.285-33.016l-1.284.731c-15.832,9.145-15.854,38.751-.044,66.12s41.454,42.161,57.263,33.016l1.306-.731C749.606,299.191,749.606,269.586,733.819,242.217ZM731.426,305.9c-14.968,7.795-38.616-6.133-53.3-31.531-14.638-25.353-14.9-52.7-.8-61.868.022-.022.066-.044.088-.066a.086.086,0,0,0,.068-.022c14.968-7.9,38.682,6.023,53.408,31.487C745.6,269.388,745.775,296.911,731.426,305.9Z" transform="translate(305.657 75.039)"/><g transform="translate(969.025 281.518)"><path class="e" d="M729.622,302.58c-14.966,7.962-38.733-5.959-53.456-31.456-14.655-25.391-14.887-52.8-.694-61.919a.14.14,0,0,1,.048-.029" transform="translate(-661.398 -203.249)"/><path class="e" d="M669.495,210.723c14.928-8.619,39.114,5.325,54.023,31.148s14.893,53.741-.035,62.361" transform="translate(-655.988 -204.456)"/><path class="e" d="M732.485,307.19c-15.827,9.136-41.472-5.651-57.274-33.023s-15.792-56.975.035-66.113" transform="translate(-663.364 -204.601)"/><path class="e" d="M668.757,209.94l1.3-.751c15.827-9.136,41.469,5.647,57.274,33.02s15.788,56.977-.037,66.116l-1.3.751" transform="translate(-656.876 -206.486)"/></g><path class="c" d="M800.453,355.761l-15.9,9.189c.82,7.618-1.172,14-5.955,16.742l-163,94.2a10.78,10.78,0,0,1-4.693,1.373A78.861,78.861,0,0,1,607.3,484.3c-12.487,21.632-32.749,33.3-45.239,26.085l-20.5-11.848c-12.49-7.217-12.512-30.579-.022-52.214,12.49-21.611,32.727-33.3,45.239-26.085l3.5,2.016L749.059,330.5c4.761-2.745,11.249-1.306,17.449,3.212l3.631-2.1.088-.044,4.01-2.326.132-.066,3.963-2.28,4.1-2.368c4.981-2.879,13.065,1.771,18.046,10.405S805.456,352.884,800.453,355.761Z" transform="translate(147.825 216.013)"/><g transform="translate(680.002 539.672)"><path class="e" d="M553.678,418.538c-5.651-3.263-5.66-13.831-.016-23.6s14.8-15.054,20.449-11.791" transform="translate(-511.412 -253.263)"/><path class="d" d="M571.795,382.616c5.651,3.263,5.658,13.831.013,23.6s-14.8,15.054-20.447,11.791" transform="translate(-509.095 -252.736)"/><path class="e" d="M541.561,446.973c-12.5-7.217-12.516-30.6-.031-52.221s32.741-33.3,45.241-26.085" transform="translate(-532.176 -272.085)"/><path class="e" d="M660.165,378.714c8.171-4.719,8.182-20,.02-34.133s-21.4-21.769-29.57-17.052" transform="translate(-413.742 -320.69)"/><path class="d" d="M658.236,358.982c4.988-2.882,4.994-12.21.011-20.839s-13.065-13.289-18.055-10.41" transform="translate(-402.22 -319.791)"/><path class="d" d="M660.09,357.909c4.988-2.879,4.994-12.21.011-20.839s-13.065-13.289-18.052-10.41" transform="translate(-399.986 -321.082)"/><path class="d" d="M661.946,356.835c4.99-2.879,4.994-12.21.013-20.837s-13.067-13.291-18.054-10.41" transform="translate(-397.753 -322.372)"/><path class="e" d="M663.8,355.765c4.99-2.882,5-12.21.013-20.839s-13.065-13.291-18.055-10.41" transform="translate(-395.52 -323.663)"/><line class="f" x1="20.493" y1="11.843" transform="translate(54.596 96.582)"/><line class="f" x1="20.493" y1="11.843" transform="translate(9.386 174.888)"/><path class="d" d="M550.864,452.35c-12.5-7.22-12.518-30.6-.031-52.221s32.738-33.3,45.241-26.087" transform="translate(-520.986 -265.618)"/><line class="f" x1="163" y2="94.196" transform="translate(83.423 58.023)"/><line class="f" x1="158.786" y2="91.761" transform="translate(58.087 6.839)"/><line class="f" x1="15.902" y2="9.188" transform="translate(234.341 0.856)"/><line class="f" x1="15.902" y2="9.188" transform="translate(252.38 32.101)"/><path class="d" d="M572.738,414.361c8.171-4.717,8.182-20,.02-34.133a50.963,50.963,0,0,0-3.615-5.431l-1.342,2.908V414.9l.233.839" transform="translate(-489.315 -262.143)"/><path class="e" d="M567.907,394.13a10.566,10.566,0,0,0,4.7-1.375" transform="translate(-489.188 -240.537)"/><path class="d" d="M567.8,413.31a9.684,9.684,0,0,0,2.507-1.007c7.722-4.459,7.733-18.9.02-32.258-.8-1.377-1.641-2.688-2.527-3.928" transform="translate(-489.315 -260.555)"/><path class="e" d="M594.59,393.381a77.848,77.848,0,0,1-3.611,7.05c-12.485,21.626-32.741,33.3-45.241,26.085" transform="translate(-515.86 -239.784)"/><path class="e" d="M566.259,372.877A15.949,15.949,0,0,1,571,377.1" transform="translate(-491.171 -264.453)"/></g><path class="c" d="M779.5,378.4l-1.551.91a22.072,22.072,0,0,1-8.458,9.077l-8.526,4.917c-2.214,6.6-6.045,11.8-11.469,14.946l-13,7.506c-18.4,10.608-48.184-6.576-66.541-38.374S651.622,311.2,670,300.59l13-7.508c5.424-3.144,11.846-3.851,18.667-2.479l8.524-4.917a21.947,21.947,0,0,1,12.113-2.767l1.551-.908c15.389-8.9,40.321,5.492,55.69,32.108S794.889,369.5,779.5,378.4Z" transform="translate(297.045 162.728)"/><g transform="translate(953.243 442.109)"><path class="d" d="M714.585,371.071c-11.551,6.669-30.267-4.124-41.8-24.1s-11.525-41.579.026-48.248" transform="translate(-646.649 -256.106)"/><path class="e" d="M668.076,299.8c11.551-6.669,30.264,4.12,41.8,24.1s11.522,41.582-.026,48.251" transform="translate(-641.913 -257.183)"/><path class="d" d="M708.356,354.188c-8.491,4.9-22.249-3.031-30.727-17.715s-8.471-30.566.02-35.468" transform="translate(-638.064 -253.36)"/><path class="e" d="M688.106,330.543c2.965-1.71,4.9-4.763,5.8-8.638.086-.405.174-.82.24-1.245" transform="translate(-617.815 -229.713)"/><path class="e" d="M674.169,301.8c3.267-1.884,7.314-1.875,11.536-.308" transform="translate(-634.582 -254.152)"/><path class="e" d="M677.687,300.431c-5.488,6.559-4.541,20.249,2.851,33.04s18.77,20.463,27.2,18.984" transform="translate(-634.573 -254.051)"/><path class="d" d="M678.459,300.422c-2.888,7.255-1.227,18.627,4.977,29.37s15.226,17.874,22.945,18.993" transform="translate(-631.076 -254.062)"/><path class="e" d="M663.506,320.031c1.2-.694,1.205-2.946,0-5.027s-3.153-3.208-4.355-2.512" transform="translate(-652.649 -239.789)"/><path class="d" d="M659.647,312.379c-1.205.694-1.205,2.946,0,5.028s3.152,3.208,4.358,2.512" transform="translate(-653.142 -239.676)"/><path class="e" d="M674.338,296.663c1.205-.694,1.205-2.946,0-5.028s-3.153-3.208-4.358-2.512" transform="translate(-639.616 -267.903)"/><path class="d" d="M670.478,289.011c-1.2.694-1.205,2.946,0,5.028s3.153,3.208,4.356,2.512" transform="translate(-640.11 -267.791)"/><path class="e" d="M697.963,321.836c1.2-.694,1.205-2.946,0-5.027s-3.153-3.208-4.356-2.514" transform="translate(-611.193 -237.618)"/><path class="d" d="M694.1,314.183c-1.205.7-1.205,2.948,0,5.03s3.153,3.206,4.358,2.512" transform="translate(-611.687 -237.506)"/><path class="e" d="M687.2,345.09c1.2-.694,1.205-2.946,0-5.027s-3.152-3.208-4.355-2.512" transform="translate(-624.142 -209.64)"/><path class="d" d="M683.341,337.438c-1.205.694-1.205,2.946,0,5.028s3.153,3.208,4.358,2.512" transform="translate(-624.636 -209.527)"/><line class="f" x1="8.518" y2="4.918" transform="translate(45.472 6.31)"/><path class="e" d="M686.912,282.007c15.389-8.885,40.321,5.488,55.688,32.106s15.351,55.4-.035,64.285" transform="translate(-619.251 -279.379)"/><line class="f" x1="8.519" y2="4.919" transform="translate(104.771 109.019)"/><path class="e" d="M736.5,409.983c-18.385,10.615-48.178-6.565-66.536-38.361s-18.343-66.188.044-76.8l13-7.506c18.385-10.615,48.173,6.559,66.534,38.361s18.341,66.188-.042,76.805Z" transform="translate(-656.201 -273.61)"/><path class="d" d="M662.466,290.721C680.853,280.1,710.642,297.28,729,329.082s18.341,66.188-.044,76.8" transform="translate(-648.662 -269.512)"/><path class="e" d="M686.912,282.007c15.389-8.885,40.321,5.488,55.688,32.106s15.351,55.4-.035,64.285" transform="translate(-619.251 -279.379)"/><path class="d" d="M686.2,282.3c15.42-8.4,40.046,5.942,55.283,32.326,15.217,26.367,15.351,54.878.386,64.025" transform="translate(-620.105 -278.757)"/><path class="d" d="M688.439,281.562h.009c14.754-3.4,35.206,10.037,48.374,32.829,13.15,22.791,14.569,47.224,4.252,58.306" transform="translate(-617.414 -277.382)"/><line class="f" x1="1.563" y2="0.914" transform="translate(66.098 2.627)"/><line class="f" x1="1.563" y2="0.914" transform="translate(121.751 99.019)"/><path class="d" d="M672.76,298.014c-7.759,8.8-6.561,27.66,3.6,45.254,10.194,17.651,25.979,28.123,37.486,25.728" transform="translate(-642.341 -256.959)"/><path class="f" d="M679.2,300.689c-1.672,7.209.251,17.275,5.768,26.83s13.265,16.25,20.357,18.414" transform="translate(-629.234 -253.741)"/><path class="e" d="M740.006,386.481c16.4-9.467,16.413-40.139.04-68.5s-42.941-43.679-59.339-34.212" transform="translate(-626.717 -277.462)"/><path class="d" d="M737.739,387.791c16.4-9.467,16.411-40.139.04-68.5s-42.943-43.677-59.341-34.21" transform="translate(-629.446 -275.886)"/><path class="d" d="M676.9,285.561c16.482-7.643,41.881,7.583,57.735,35.041s16.338,57.078,1.478,67.532" transform="translate(-631.3 -274.31)"/><path class="d" d="M678.541,284.912c15.825-.434,35.834,13.979,49.118,37,13.285,23.005,15.777,47.543,7.488,61.04" transform="translate(-629.323 -272.733)"/></g><path class="c" d="M830.761,476.13l-9.722,5.625c-15.832,9.123-41.474-5.647-57.283-33.038a96.529,96.529,0,0,1-6.089-12.511l7-13.529h1.5a90.773,90.773,0,0,0,8.526,19.729c13.485,23.34,34.432,37.136,49.557,33.7h.022c10.54-11.381,9.079-36.426-4.406-59.786-13.485-23.34-34.435-37.136-49.579-33.7-6.821,7.374-8.614,20.482-5.382,35.12l-7.33,14.17h-1.5c-7.462-21.767-4.871-42.027,7.729-49.29l9.742-5.625c15.81-9.145,41.452,5.647,57.264,33.016S846.592,466.985,830.761,476.13Z" transform="translate(397.352 276.918)"/><g transform="translate(1149.262 651.21)"><path class="e" d="M762.65,394.019l-7.332,14.158H753.8" transform="translate(-749.649 -350.554)"/><line class="a" x1="7.001" y2="13.52" transform="translate(7.266 48.393)"/><line class="f" x1="7.001" y2="13.52" transform="translate(5.749 48.393)"/><line class="a" x1="1.517" transform="translate(5.749 61.913)"/><line class="f" x1="1.517" transform="translate(12.75 48.393)"/><path class="e" d="M758.393,396.256a90.145,90.145,0,0,0,8.517,19.733c13.479,23.351,34.444,37.147,49.581,33.708" transform="translate(-744.125 -347.863)"/><path class="e" d="M764.043,378.073c-6.823,7.38-8.614,20.478-5.369,35.131" transform="translate(-745.674 -369.74)"/><path class="e" d="M757.854,380.427c15.164-8.755,39.733,5.409,54.878,31.639s15.129,54.6-.035,63.351" transform="translate(-744.774 -370.023)"/><path class="d" d="M757.31,379.548c15.827-9.138,41.469,5.647,57.274,33.02s15.79,56.977-.035,66.116" transform="translate(-745.428 -371.217)"/><path class="e" d="M814.549,481.758l9.738-5.629c15.825-9.139,15.841-38.742.038-66.113s-41.447-42.159-57.275-33.023l-9.74,5.629" transform="translate(-745.428 -374.29)"/><path class="d" d="M756.66,426.232c-7.136-20.855-4.662-40.249,7.411-47.219" transform="translate(-750.992 -368.609)"/><path class="d" d="M815.871,445.874c-15.164,8.755-39.735-5.415-54.88-31.641a93.467,93.467,0,0,1-5.776-11.84" transform="translate(-747.949 -340.48)"/><path class="e" d="M756.07,427.365c-7.453-21.769-4.873-42.018,7.729-49.293" transform="translate(-751.917 -369.741)"/><path class="e" d="M817.9,447.946c-15.829,9.136-41.472-5.651-57.277-33.023a97.382,97.382,0,0,1-6.1-12.529" transform="translate(-748.779 -340.479)"/></g><path class="c" d="M813.058,475.754c3.785-12.976.531-31.888-9.81-49.8-13.485-23.36-34.477-37.156-49.6-33.7-10.54,11.4-9.079,36.426,4.406,59.786,13.485,23.34,34.432,37.136,49.579,33.7a22.77,22.77,0,0,0,4.318-6.843l5.536,1.2,1.593,1.593a19.337,19.337,0,0,1-4.937,4.054l-9.742,5.647c-15.834,9.123-41.476-5.669-57.286-33.038-15.788-27.369-15.788-56.975.044-66.1L756.9,386.6c15.832-9.123,41.474,5.647,57.261,33.038,12.91,22.342,15.279,46.191,7.085,59.145l-6.6-1.441Z" transform="translate(377.183 288.491)"/><g transform="translate(1112.609 672.392)"><line class="f" x2="1.594" y2="1.594" transform="translate(77.776 91.842)"/><path class="d" d="M770.082,427.015l1.591,1.591,5.54,1.214" transform="translate(-693.409 -332.039)"/><line class="f" x2="5.54" y2="1.214" transform="translate(76.673 94.976)"/><line class="f" x2="1.591" y2="1.591" transform="translate(82.213 96.19)"/><line class="f" x2="6.601" y2="1.447" transform="translate(79.37 93.436)"/><path class="d" d="M802.277,483.616c-15.166,8.755-39.738-5.415-54.88-31.641s-15.129-54.591.035-63.346" transform="translate(-734.355 -378.223)"/><path class="e" d="M747.407,387.687c-10.54,11.4-9.072,36.442,4.415,59.795s34.441,37.147,49.581,33.708" transform="translate(-729.037 -379.355)"/><path class="e" d="M774.861,427.015a20.951,20.951,0,0,1-8.751,10.416" transform="translate(-698.188 -332.039)"/><path class="e" d="M741.216,390.042c15.166-8.755,39.735,5.409,54.88,31.639,10.339,17.911,13.613,36.819,9.819,49.8" transform="translate(-728.138 -379.637)"/><path class="d" d="M775.8,427.737a21.877,21.877,0,0,1-9.145,10.9" transform="translate(-697.534 -331.17)"/><path class="d" d="M740.673,389.163c15.827-9.139,41.469,5.644,57.275,33.02,10.822,18.744,14.226,38.535,10.214,52.084" transform="translate(-728.791 -380.831)"/><path class="e" d="M804.4,486.821c-15.827,9.139-41.471-5.651-57.274-33.02s-15.79-56.977.037-66.113" transform="translate(-735.28 -379.355)"/><path class="e" d="M814.762,478.789c8.187-12.97,5.829-36.808-7.074-59.16-15.805-27.374-41.447-42.159-57.274-33.02l-9.74,5.629" transform="translate(-728.791 -383.905)"/><path class="e" d="M766.653,437.973l9.74-5.627a19.854,19.854,0,0,0,4.946-4.058" transform="translate(-697.534 -330.507)"/></g><path class="c" d="M794.125,430.26c-15.81-27.369-41.452-42.137-57.286-33.016l-6.73,3.9c-15.832,9.145-15.832,38.729-.044,66.12,15.81,27.369,41.452,42.161,57.283,33.016l6.733-3.9a19.849,19.849,0,0,0,4.959-4.052l2.148-2.9C809.382,476.451,807.036,452.626,794.125,430.26Zm-3.278,49.689-.952,2.7a18.934,18.934,0,0,1-5,7.129l-.022.022c-13.131,4.472-32.263-7.55-44.4-28.541-12.135-21.016-12.976-43.624-2.525-52.747h.022c13.131-4.516,32.284,7.508,44.419,28.544C791.29,452.492,794.1,468.769,790.847,479.95Z" transform="translate(356.816 301.292)"/><g transform="translate(1074.894 695.835)"><path class="d" d="M778.483,483.287c-13.064,7.541-34.228-4.664-47.27-27.253s-13.031-47.023.031-54.565" transform="translate(-714.364 -386.215)"/><path class="e" d="M778.087,482.162l-.009.009c-13.131,4.494-32.289-7.526-44.422-28.539s-12.965-43.62-2.514-52.741l.011-.009" transform="translate(-711.422 -386.922)"/><path class="e" d="M725.889,402.688c13.062-7.541,34.226,4.66,47.27,27.253,8.905,15.426,11.725,31.714,8.456,42.892l-.949,2.7a18.051,18.051,0,0,1-7.537,8.973" transform="translate(-709.008 -387.433)"/><path class="d" d="M723.62,399.016c15.827-9.139,41.469,5.644,57.275,33.02,10.822,18.744,14.225,38.535,10.214,52.084L790,487.251a21.876,21.876,0,0,1-9.145,10.9" transform="translate(-711.738 -392.419)"/><path class="e" d="M787.346,496.674c-15.827,9.139-41.471-5.651-57.274-33.023s-15.79-56.975.037-66.111" transform="translate(-718.227 -390.943)"/><path class="e" d="M780.857,500.276l6.737-3.893a19.888,19.888,0,0,0,4.946-4.056l2.166-2.9c8.187-12.968,5.829-36.807-7.074-59.158-15.807-27.376-41.449-42.159-57.277-33.023l-6.735,3.9" transform="translate(-711.738 -394.545)"/></g><path class="c" d="M753.886,384.962l-.046-.066a61.366,61.366,0,0,0-5.669-14.085,63.206,63.206,0,0,0-9.343-11.934s-1.972-2.016-8.436-3.787a48.661,48.661,0,0,0-12.069-1.705l-6.422,3.7a39.464,39.464,0,0,0-6.2,12.289c-1.705,6.488-.93,9.211-.93,9.211a54.059,54.059,0,0,0,15.034,26.041s1.972,2.016,8.416,3.787a39.2,39.2,0,0,0,13.728.753l6.422-3.7a49.032,49.032,0,0,0,4.583-11.315C754.637,387.686,753.886,384.962,753.886,384.962Zm-27.812-1.284a22.549,22.549,0,0,1-3.3-11.959,24.584,24.584,0,0,1,12,20.771A22.423,22.423,0,0,1,726.074,383.678Z" transform="translate(355.268 251.768)"/><g transform="translate(1059.871 605.153)"><path class="e" d="M720.13,355.866a54.009,54.009,0,0,1,15.036,26.041" transform="translate(-685.914 -350.4)"/><line class="f" y1="3.7" x2="6.421" transform="translate(37.366 52.08)"/><line class="f" y1="3.7" x2="6.421" transform="translate(7.298 0.001)"/><path class="e" d="M710.827,353.385a48.972,48.972,0,0,1,12.088,1.7c6.451,1.771,8.425,3.8,8.425,3.8" transform="translate(-697.107 -353.385)"/><path class="e" d="M724.475,388.227a49.054,49.054,0,0,0,4.572-11.322c1.694-6.468.923-9.194.923-9.194" transform="translate(-680.687 -336.148)"/><path class="e" d="M733.661,381.189a39.392,39.392,0,0,1-13.73-.758c-6.453-1.767-8.429-3.794-8.429-3.794" transform="translate(-696.295 -325.41)"/><path class="e" d="M711.9,355.065a39.735,39.735,0,0,0-6.2,12.291c-1.7,6.468-.93,9.194-.93,9.194" transform="translate(-704.599 -351.363)"/><path class="e" d="M719.712,390.858a54.123,54.123,0,0,1-15.034-26.041" transform="translate(-704.505 -339.631)"/><path class="e" d="M709.518,361.915c4.43-2.558,11.615,1.588,16.045,9.26s4.428,15.973,0,18.53" transform="translate(-698.682 -344.032)"/><path class="d" d="M732.25,383.587s-7.145-4.323-10.971-10.954-4.063-15.087-4.063-15.087" transform="translate(-689.42 -348.378)"/><line class="a" y1="3.7" x2="6.421" transform="translate(27.794 5.467)"/><line class="a" y1="3.7" x2="6.421" transform="translate(42.829 31.508)"/><path class="d" d="M736.234,403.344c-7.191,4.151-18.85-2.58-26.041-15.036s-7.189-25.913,0-30.064,18.85,2.575,26.039,15.03,7.191,25.918,0,30.07" transform="translate(-704.356 -349.015)"/><path class="d" d="M727.744,369.366a40.146,40.146,0,0,0-6.18,12.32c-1.694,6.468.716,8.251.716,8.251" transform="translate(-684.915 -334.158)"/><path class="d" d="M728.41,360.531a38.49,38.49,0,0,1-13.7-.7c-6.451-1.771-6.8-4.768-6.8-4.768" transform="translate(-700.614 -351.363)"/><path class="d" d="M727.376,389.292c-4.428,2.556-11.613-1.588-16.045-9.264s-4.426-15.968,0-18.526" transform="translate(-700.497 -343.619)"/><path class="d" d="M711.373,361.194c-2.774,3.459-2.252,10.54,1.564,17.158s9.689,10.608,14.067,9.943" transform="translate(-698.557 -343.99)"/><path class="d" d="M711.841,361.225c-1.353,3.8-.445,9.575,2.714,15.052s7.7,9.13,11.661,9.874" transform="translate(-696.618 -343.952)"/><path class="e" d="M712.861,361.7a24.65,24.65,0,0,0,12.009,20.791" transform="translate(-694.684 -343.383)"/></g><path class="c" d="M707.2,488.22l-2.435,1.417a19.471,19.471,0,0,1-4.983,2.016h-.022a19.738,19.738,0,0,1-4.23,3.3l-2.434,1.417a19.4,19.4,0,0,1-4.983,2.016,18.832,18.832,0,0,1-4.25,3.322L671.79,508.68c-15.589,8.989-40.833-5.558-56.4-32.529s-15.543-56.133.022-65.124l12.069-6.975h.022a19.32,19.32,0,0,1,4.961-2.014,19.28,19.28,0,0,1,4.25-3.322l2.437-1.395a19.423,19.423,0,0,1,4.981-2.016v-.022a19.869,19.869,0,0,1,4.252-3.3l2.437-1.419c15.589-8.989,40.854,5.581,56.419,32.529C722.807,450.066,722.785,479.207,707.2,488.22Z" transform="translate(233.91 293.306)"/><g transform="translate(837.636 681.211)"><path class="d" d="M618.5,409.028c-8.112,4.686-8.121,19.861-.02,33.895s21.251,21.613,29.363,16.929" transform="translate(-593.281 -362.498)"/><path class="f" d="M618.462,408.786l-.009.011c-7.129,5.294-6.812,19.8.956,33.234S639.572,463,647.726,459.469c0,0,.009.02.009-.009" transform="translate(-592.167 -362.789)"/><path class="d" d="M618.465,408.6l-.009.011c-6.156,5.834-5.536,19.63,1.884,32.461,7.409,12.849,19.061,20.288,27.2,17.845h.009" transform="translate(-591.049 -363.011)"/><path class="d" d="M618.528,408.479c-5.228,6.281-4.309,19.352,2.734,31.564,7.063,12.212,17.94,19.544,25.988,18.134" transform="translate(-589.933 -363.159)"/><path class="e" d="M615.175,409.784c6.087-3.518,15.023-.117,22.531,7.737a49.953,49.953,0,0,1,11.381,19.7c3.051,10.434,1.525,19.872-4.572,23.388" transform="translate(-589.953 -363.255)"/><path class="d" d="M622.514,411.62c-5.151,2.974-5.155,12.611-.011,21.52S636,446.863,641.146,443.889" transform="translate(-585.774 -359.38)"/><path class="e" d="M620.4,412.1c3-1.738,7.1-.82,11.013,2.029" transform="translate(-583.663 -359.862)"/><path class="e" d="M632.621,421.482c.491,4.8-.754,8.8-3.759,10.54" transform="translate(-573.485 -347.515)"/><path class="d" d="M665.414,497.5c15.589-9,15.609-38.151.04-65.118s-40.826-41.527-56.415-32.527" transform="translate(-597.336 -376.736)"/><path class="e" d="M667.333,496.392c15.589-9,15.609-38.154.04-65.118s-40.826-41.529-56.415-32.529" transform="translate(-595.026 -378.071)"/><path class="d" d="M669.784,494.976c15.589-9,15.609-38.154.04-65.118S629,388.33,613.408,397.329" transform="translate(-592.079 -379.775)"/><path class="e" d="M614.518,396.693a19.455,19.455,0,0,1,4.975-2.018c15.594-3.933,37.438,10.3,51.436,34.547s15.391,50.257,4.2,61.8a19.509,19.509,0,0,1-4.241,3.314" transform="translate(-590.743 -380.548)"/><path class="e" d="M676.187,491.276c15.589-9,15.609-38.154.037-65.117s-40.824-41.529-56.413-32.529" transform="translate(-584.375 -384.227)"/><path class="d" d="M675.079,491.915c15.589-9,15.609-38.154.04-65.118s-40.826-41.529-56.415-32.527" transform="translate(-585.708 -383.456)"/><path class="d" d="M672.922,487.868c14.783-8.535,14.8-36.175.038-61.742s-38.709-39.376-53.49-30.841" transform="translate(-584.785 -382.07)"/><path class="e" d="M681.482,488.216c15.589-9,15.609-38.154.037-65.118S640.7,381.57,625.106,390.569" transform="translate(-578.005 -387.908)"/><path class="d" d="M680.373,488.855c15.589-9,15.609-38.154.04-65.118S639.587,382.209,624,391.211" transform="translate(-579.338 -387.138)"/><path class="d" d="M678.217,484.808c14.783-8.535,14.8-36.175.038-61.742s-38.709-39.376-53.489-30.841" transform="translate(-578.415 -385.752)"/><path class="e" d="M627.5,395.236l-12.068,6.975c-15.587,9-15.6,38.156-.04,65.12s40.828,41.524,56.415,32.525l12.069-6.973" transform="translate(-603.727 -379.092)"/><path class="e" d="M622.5,411.44c-4.433,3.428-4.192,12.558.7,21.031s12.657,13.228,17.834,11.15l.011-.011" transform="translate(-584.939 -359.596)"/><path class="e" d="M647.014,437.137a19.6,19.6,0,0,1-4.984,2.02" transform="translate(-557.641 -328.68)"/><path class="e" d="M652.31,434.078a19.526,19.526,0,0,1-4.986,2.018" transform="translate(-551.273 -332.36)"/><path class="e" d="M621.017,392.815a19.4,19.4,0,0,0-4.241,3.316" transform="translate(-588.026 -382.004)"/><path class="e" d="M626.314,389.757a19.318,19.318,0,0,0-4.241,3.314" transform="translate(-581.653 -385.684)"/><line class="f" y1="1.41" x2="2.441" transform="translate(89.37 107.049)"/><line class="f" y1="1.41" x2="2.441" transform="translate(44.66 2.662)"/><line class="f" y1="1.41" x2="2.441" transform="translate(32.995 9.404)"/><line class="f" y1="1.41" x2="2.441" transform="translate(101.036 100.307)"/></g><line class="g" y1="21.246" x2="36.817" transform="translate(1041.937 636.931)"/><line class="a" y1="9.311" x2="16.12" transform="translate(1076.593 467.533)"/><path class="c" d="M734.763,404.471h-1.838l1.551-1.815-.09-.068a50.873,50.873,0,0,0-5.669-14.259c-8.813-15.257-23.073-23.494-31.908-18.4L676.261,381.8c-8.812,5.091-8.812,21.566,0,36.823,8.791,15.257,23.073,23.494,31.886,18.4L728.7,425.152C734.386,421.876,736.4,413.837,734.763,404.471Zm-22.474,15.986a44.5,44.5,0,0,1-19.619-33.968c4.981,2.99,9.94,8.105,13.75,14.7s5.779,13.441,5.891,19.264Z" transform="translate(313.226 269.857)"/><g transform="translate(982.871 638.279)"><path class="d" d="M705.053,425.031c-7.85,4.532-20.571-2.8-28.409-16.378s-7.83-28.259.02-32.791" transform="translate(-668.3 -359.468)"/><path class="d" d="M680.1,376.619a41.256,41.256,0,0,0,5.865,19.255c3.807,6.59,8.764,11.71,13.747,14.706" transform="translate(-657.075 -358.558)"/><path class="e" d="M708.147,429.707c-8.815,5.089-23.1-3.148-31.9-18.394s-8.795-31.734.022-36.823" transform="translate(-669.649 -361.119)"/><path class="f" d="M688.746,407.416h2.771l19.92-23.429" transform="translate(-646.673 -349.693)"/><line class="a" x1="3.15" transform="translate(41.122 60.543)"/><line class="f" x1="1.825" transform="translate(63.283 36.036)"/><path class="e" d="M690.746,395.853a10.739,10.739,0,0,1-4.415,5.127" transform="translate(-649.578 -335.417)"/><path class="e" d="M673.445,376.594c7.85-4.532,20.568,2.8,28.407,16.378,5.138,8.9,6.9,18.273,5.3,24.95" transform="translate(-665.081 -360.2)"/><path class="d" d="M692.9,395.9a12.957,12.957,0,0,1-5.777,8.044" transform="translate(-648.625 -335.358)"/><path class="d" d="M672.653,375.313c8.815-5.091,23.1,3.144,31.9,18.392,5.219,9.044,7.341,18.524,6.363,25.8" transform="translate(-666.034 -361.941)"/><line class="a" y1="24.507" x2="20.837" transform="translate(44.271 36.036)"/><line class="f" y1="2.82" x2="2.398" transform="translate(41.122 57.723)"/><path class="e" d="M713.734,384.777c1.643,9.379-.377,17.4-6.063,20.687L687.123,417.33" transform="translate(-648.625 -348.742)"/><path class="e" d="M672.653,381.792,693.2,369.926c8.815-5.089,23.1,3.146,31.9,18.394a50.97,50.97,0,0,1,5.671,14.272" transform="translate(-666.034 -368.421)"/></g><line class="a" y1="21.246" x2="36.817" transform="translate(1041.937 636.931)"/><path class="h" d="M0,27.947,50.1,0" transform="translate(827.958 753.846)"/><path class="c" d="M621.032,444.556c-8.815-15.257-23.073-23.472-31.888-18.4l-1.615.952c-8.812,5.072-8.837,21.568-.022,36.8,8.79,15.235,23.073,23.472,31.864,18.378l1.639-.93C629.822,476.265,629.822,459.79,621.032,444.556Zm-2.5,34.411a.022.022,0,0,1-.022.022c-7.949,3.589-20.15-3.763-27.768-16.962-7.638-13.219-7.883-27.479-.753-32.549,7.973-3.611,20.174,3.741,27.79,16.94C625.416,459.636,625.658,473.919,618.529,478.966Z" transform="translate(206.456 337.516)"/><g transform="translate(787.361 762.179)"><path class="e" d="M613.563,476.857l.02-.009c7.129-5.063,6.878-19.332-.753-32.56-7.623-13.206-19.826-20.549-27.8-16.944l-.009.009" transform="translate(-575.953 -422.529)"/><path class="e" d="M587.849,426.845l-.009.009c-7.12,5.063-6.869,19.332.762,32.549,7.614,13.2,19.817,20.54,27.777,16.955l.02-.009" transform="translate(-578.769 -422.029)"/><path class="e" d="M587.521,425.767c-8.81,5.087-8.821,21.566-.022,36.805s23.075,23.472,31.883,18.385" transform="translate(-580.907 -423.326)"/><path class="e" d="M616.509,481.354c8.81-5.087,8.821-21.564.022-36.805s-23.076-23.472-31.886-18.385" transform="translate(-576.409 -424.659)"/><line class="f" y1="0.936" x2="1.622" transform="translate(6.614 1.505)"/><line class="f" y1="0.936" x2="1.622" transform="translate(38.477 56.694)"/></g><line class="a" y1="27.947" x2="50.097" transform="translate(827.958 753.846)"/><path class="h" d="M0,36.738,63.573,0" transform="translate(944.669 335.266)"/><line class="a" y1="36.738" x2="63.573" transform="translate(944.669 335.266)"/><g transform="translate(940.365 372.006)"><path class="b" d="M700.593,276.134l-2.84,1.638,7.639,4.414,2.841-1.638-7.64-4.413" transform="translate(-593.33 -213.18)"/><path class="b" d="M707.532,280.138l-2.841,1.64,7.638,4.409,2.84-1.639-7.637-4.41" transform="translate(-584.984 -208.362)"/><path class="b" d="M720.63,294.254c4.717-2.725,5.347-3.47,2.915-4.875-1-.575-2.157-1.232-2.157-1.232l-2.815,1.626,1.141.648c1.879,1.084,3,2.287.917,3.833h0" transform="translate(-568.282 -198.727)"/><path class="b" d="M714.466,284.143l-2.841,1.641,7.644,4.409,2.839-1.641-7.642-4.409" transform="translate(-576.642 -203.544)"/><path class="b" d="M679.547,263.95l-2.84,1.638L684.345,270l2.841-1.638-7.64-4.413" transform="translate(-618.652 -227.839)"/><path class="b" d="M686.485,267.954l-2.841,1.64L691.281,274l2.84-1.639-7.637-4.41" transform="translate(-610.306 -223.022)"/><path class="b" d="M693.419,271.959l-2.841,1.641,7.644,4.409,2.839-1.641-7.642-4.409" transform="translate(-601.964 -218.203)"/><path class="b" d="M658.5,251.765l-2.84,1.638,7.639,4.414,2.841-1.638-7.64-4.413" transform="translate(-643.974 -242.499)"/><path class="b" d="M665.438,255.769l-2.841,1.64,7.638,4.409,2.84-1.639-7.637-4.41" transform="translate(-635.628 -237.681)"/><path class="b" d="M672.372,259.774l-2.841,1.641,7.644,4.409,2.839-1.641-7.642-4.409" transform="translate(-627.286 -232.863)"/><path class="b" d="M654.66,247.559c-4.717,2.719-5.345,3.463-2.915,4.869,1,.579,2.157,1.234,2.157,1.234l2.813-1.626s-.835-.474-1.139-.652c-1.877-1.08-3.005-2.282-.916-3.825h0" transform="translate(-650.355 -247.559)"/></g></g></svg>