<svg xmlns="http://www.w3.org/2000/svg" width="12" height="24" viewBox="0 0 12 24"><defs><style>.a{fill:none;}.a,.b{fill-rule:evenodd;}.b{fill:#fff;}</style></defs><g transform="translate(-331 -40)"><path class="a" d="M12,0H0V-24H12Z" transform="translate(331 64)"/><path class="b" d="M5-16a2.006,2.006,0,0,0,2-2,2.006,2.006,0,0,0-2-2,2.006,2.006,0,0,0-2,2,2.006,2.006,0,0,0,2,2Zm0,2a2.006,2.006,0,0,0-2,2,2.006,2.006,0,0,0,2,2,2.006,2.006,0,0,0,2-2,2.006,2.006,0,0,0-2-2ZM5-8A2.006,2.006,0,0,0,3-6,2.006,2.006,0,0,0,5-4,2.006,2.006,0,0,0,7-6,2.006,2.006,0,0,0,5-8Z" transform="translate(332 64)"/></g></svg>