<svg xmlns="http://www.w3.org/2000/svg" width="100" height="100" viewBox="0 0 100 100"><defs><style>.a{fill:#217dd8;stroke-width:1.5px;}.a,.b{stroke:#0c4278;stroke-linecap:round;stroke-linejoin:round;}.b,.c{fill:none;}.b{stroke-width:0.5px;}</style></defs><g transform="translate(-130 -1850)"><path class="a" d="M1028.567,222.051h-49.18a7.935,7.935,0,0,0,0,15.87h49.18a7.935,7.935,0,0,0,0-15.87Zm0,9.91a1.975,1.975,0,1,1,1.97-1.97A1.976,1.976,0,0,1,1028.567,231.961Zm-51.15-1.97a1.975,1.975,0,1,1,1.97,1.97A1.976,1.976,0,0,1,977.417,229.991Zm40.83,0a1.975,1.975,0,1,1-1.98-1.98A1.976,1.976,0,0,1,1018.247,229.991Zm-12.3,0a1.97,1.97,0,1,1-1.97-1.98A1.967,1.967,0,0,1,1005.947,229.991Zm-12.29,0a1.975,1.975,0,1,1-1.97-1.98A1.967,1.967,0,0,1,993.657,229.991Z" transform="translate(-823.977 1687.831)"/><path class="b" d="M1028.567,224.981h-49.18a5,5,0,1,0,0,10.01h49.18a5,5,0,1,0,0-10.01Zm-49.18,6.98a1.975,1.975,0,1,1,1.98-1.97A1.967,1.967,0,0,1,979.387,231.961Zm12.3,0a1.975,1.975,0,1,1,1.97-1.97A1.976,1.976,0,0,1,991.687,231.961Zm12.29,0a1.975,1.975,0,1,1,1.97-1.97A1.967,1.967,0,0,1,1003.977,231.961Zm12.29,0a1.975,1.975,0,1,1,1.98-1.97A1.967,1.967,0,0,1,1016.267,231.961Zm12.3,0a1.975,1.975,0,1,1,1.97-1.97A1.976,1.976,0,0,1,1028.567,231.961Z" transform="translate(-823.977 1687.831)"/><path class="a" d="M1018.617,196.263a14.506,14.506,0,0,0-.367-3.231,1.476,1.476,0,0,1,.541-1.482l2.674-2.1a1.5,1.5,0,0,0,.373-1.93l-1.361-2.358a1.5,1.5,0,0,0-1.858-.641l-3.134,1.259a1.512,1.512,0,0,1-1.588-.267,14.626,14.626,0,0,0-5.547-3.21,1.472,1.472,0,0,1-1.041-1.184l-.486-3.409a1.5,1.5,0,0,0-1.484-1.288h-2.723a1.5,1.5,0,0,0-1.485,1.288l-.486,3.407A1.469,1.469,0,0,1,999.6,182.3a14.619,14.619,0,0,0-5.549,3.21,1.514,1.514,0,0,1-1.588.267l-3.132-1.258a1.5,1.5,0,0,0-1.858.641l-1.361,2.358a1.5,1.5,0,0,0,.373,1.93l2.674,2.1a1.473,1.473,0,0,1,.541,1.481,14.415,14.415,0,0,0,0,6.464,1.477,1.477,0,0,1-.541,1.481l-2.674,2.1a1.5,1.5,0,0,0-.373,1.93l1.361,2.358a1.5,1.5,0,0,0,1.858.641l3.129-1.256a1.514,1.514,0,0,1,1.589.266,14.6,14.6,0,0,0,5.551,3.21,1.471,1.471,0,0,1,1.042,1.185l.485,3.406a1.5,1.5,0,0,0,1.485,1.288h2.723a1.5,1.5,0,0,0,1.484-1.288l.486-3.407a1.471,1.471,0,0,1,1.041-1.185,14.613,14.613,0,0,0,5.549-3.21,1.514,1.514,0,0,1,1.589-.266l3.131,1.258a1.5,1.5,0,0,0,1.858-.642l1.362-2.358a1.5,1.5,0,0,0-.374-1.93l-2.673-2.1a1.476,1.476,0,0,1-.542-1.481A14.455,14.455,0,0,0,1018.617,196.263Zm-14.64,4.68a4.68,4.68,0,1,1,4.68-4.68A4.686,4.686,0,0,1,1003.977,200.943Z" transform="translate(-823.977 1687.831)"/><path class="b" d="M1001.607,188.7a7.751,7.751,0,0,1,2.37-.37,7.957,7.957,0,1,1-5.38,2.11" transform="translate(-823.977 1687.831)"/><rect class="c" width="100" height="100" transform="translate(130 1850)"/></g></svg>